# xmcd
#
# Track frame offsets:
#	150
#	10704
#	23368
#	36595
#	49318
#	61097
#	72030
#	82758
#	91608
#	105255
#	117861
#	128368
#
# Disc length: 1982 seconds
#
# Revision: 0
# Processed by: cddbd v1.5.2PL0 Copyright (c) Steve Scherf et al.
# Submitted via: audiograbber 1.83.01
#
DISCID=7a07bc0c
DTITLE=Tonyia Landry - Make Friends
DYEAR=1900
DGENRE=Country
TTITLE0=Make Friends
TTITLE1=Under Your Spell Again
TTITLE2=Mule Skinner Blues
TTITLE3=Rose Garden
TTITLE4=Waltz Across Texas
TTITLE5=You're Nobody Till Somebody Loves You
TTITLE6=I've Been Everywhere
TTITLE7=Back In Baby's Arms
TTITLE8=Cry
TTITLE9=Deep Water
TTITLE10=Have I Told You Lately That I Love You
TTITLE11=In The Garden
EXTD=
EXTT0=
EXTT1=
EXTT2=
EXTT3=
EXTT4=
EXTT5=
EXTT6=
EXTT7=
EXTT8=
EXTT9=
EXTT10=
EXTT11=
PLAYORDER=
